<?xml version="1.0" encoding="utf-8"?>
<!-- Generator: Adobe Illustrator 25.0.1, SVG Export Plug-In . SVG Version: 6.00 Build 0)  -->
<svg version="1.1" id="Capa_1" xmlns="http://www.w3.org/2000/svg" xmlns:xlink="http://www.w3.org/1999/xlink" x="0px" y="0px"
	 viewBox="0 0 310.3 310.3" style="enable-background:new 0 0 310.3 310.3;" xml:space="preserve">
<style type="text/css">
	.st0{fill:#09264A;}
</style>
<path class="st0" d="M155.1,0C69.6,0,0,69.6,0,155.1s69.6,155.1,155.1,155.1s155.1-69.6,155.1-155.1S240.7,0,155.1,0z M131.1,219.8
	c-9.1,8.5-20.4,12.8-34,12.8c-12.1,0-22.9-5.5-32.3-16.6C55.6,205.5,51,194.2,51,182.1c0-35.6,24.5-70,73.6-103.2
	c1.7-1.2,6.1-2.2,8.7,0.6l4.7,5.9c2.3,3.9-0.5,7.5-2.3,8.9c-8.5,7.1-14.7,12.5-18.6,16.4c-7.6,8-13.2,16-16.9,23.9
	c-0.8,1.8,1.3,3,2.4,3.3c28,9.2,42,25.3,42,48.5C144.7,200.2,140.1,211.3,131.1,219.8z M237.5,219.8c-9.1,8.5-20.4,12.8-34,12.8
	c-12.1,0-22.9-5.5-32.3-16.6c-9.2-10.4-13.7-21.7-13.7-33.9c0-35.6,24.5-70,73.6-103.2c1.7-1.2,6.1-2.2,8.7,0.6l4.7,5.9
	c2.3,3.9-0.5,7.5-2.3,8.9c-8.5,7.1-14.7,12.5-18.6,16.4c-7.6,8-13.2,16-16.9,23.9c-0.8,1.8,1.3,3,2.4,3.3c28,9.2,42,25.3,42,48.5
	C251.1,200.2,246.6,211.3,237.5,219.8z"/>
</svg>
