<?xml version="1.0" encoding="utf-8"?>
<!-- Generator: Adobe Illustrator 25.0.1, SVG Export Plug-In . SVG Version: 6.00 Build 0)  -->
<svg version="1.1" id="Layer_1" xmlns:svgjs="http://svgjs.com/svgjs"
	 xmlns="http://www.w3.org/2000/svg" xmlns:xlink="http://www.w3.org/1999/xlink" x="0px" y="0px" viewBox="0 0 512 512"
	 style="enable-background:new 0 0 512 512;" xml:space="preserve">
<style type="text/css">
	.st0{fill:#09264A;}
</style>
<g transform="matrix(1,0,0,1,0,1.7763568394002505e-15)">
	<path class="st0" d="M363.2,460.5c-6.1,0-12.1-1.5-17.4-4.3L246,403.8c-1.6-0.8-3.5-0.8-5,0l-99.7,52.4
		c-18.3,9.6-40.9,2.6-50.5-15.7c-3.8-7.3-5.2-15.6-3.8-23.8l19-111c0.3-1.8-0.3-3.6-1.6-4.8l-80.6-78.7c-14.8-14.3-15.1-38-0.7-52.8
		c5.8-5.9,13.3-9.8,21.5-10.9L156,142.3c1.8-0.3,3.3-1.4,4.1-3l49.8-101c9.1-18.5,31.5-26.1,50.1-17c7.4,3.6,13.4,9.6,17,17
		l49.8,101c0.8,1.6,2.3,2.7,4.1,3l111.5,16.2c20.5,2.9,34.7,21.9,31.7,42.4c-1.2,8.2-5,15.7-10.9,21.4l-80.7,78.6
		c-1.3,1.2-1.9,3-1.6,4.8l19,111c3.5,20.4-10.2,39.7-30.6,43.2C367.3,460.3,365.2,460.5,363.2,460.5L363.2,460.5z"/>
</g>
</svg>
